<svg id="레이어_1" data-name="레이어 1" xmlns="http://www.w3.org/2000/svg" xmlns:xlink="http://www.w3.org/1999/xlink" viewBox="0 0 320 64"><defs><style>.cls-1,.cls-4,.cls-5{fill:none;}.cls-2{clip-path:url(#clip-path);}.cls-3{fill:#fff;}.cls-4,.cls-5{stroke:#231815;stroke-miterlimit:10;}.cls-4{stroke-width:1.8px;}.cls-5{stroke-width:1.98px;}.cls-6{fill:#006bff;}</style><clipPath id="clip-path"><rect class="cls-1" x="3.41" y="8" width="48" height="48"/></clipPath></defs><g class="cls-2"><g class="cls-2"><path class="cls-3" d="M32.23,14.8H22.59a1.48,1.48,0,0,1-1.48-1.48V12.08a1.48,1.48,0,0,1,1.48-1.48h9.64a1.48,1.48,0,0,1,1.48,1.48v1.24a1.48,1.48,0,0,1-1.48,1.48"/><rect class="cls-4" x="21.11" y="10.6" width="12.6" height="4.2" rx="1.48"/><path class="cls-3" d="M24.58,26,11.17,48.39a3.31,3.31,0,0,0,2.83,5H40.82a3.31,3.31,0,0,0,2.84-5L30.25,26a3.31,3.31,0,0,0-5.67,0"/><path class="cls-5" d="M24.58,26,11.17,48.39a3.31,3.31,0,0,0,2.83,5H40.82a3.31,3.31,0,0,0,2.84-5L30.25,26A3.31,3.31,0,0,0,24.58,26Z"/><rect class="cls-3" x="23.81" y="14.8" width="7.2" height="12.6"/><rect class="cls-4" x="23.81" y="14.8" width="7.2" height="12.6"/><path class="cls-6" d="M23.28,35.82,15.72,48.66A.9.9,0,0,0,16.49,50H38.33a.9.9,0,0,0,.77-1.35L31.6,35.92a.9.9,0,0,0-.75-.44l-6.79-.1a.91.91,0,0,0-.78.44"/></g></g><path d="M62,41.29a8.58,8.58,0,0,1-3.19-.57A6.86,6.86,0,0,1,56.36,39a7.67,7.67,0,0,1-1.6-2.73,11.11,11.11,0,0,1-.56-3.7,10.16,10.16,0,0,1,.63-3.71,8.21,8.21,0,0,1,1.72-2.73,7.43,7.43,0,0,1,2.52-1.68,8.25,8.25,0,0,1,3.07-.57,11.55,11.55,0,0,1,1.86.14,11.85,11.85,0,0,1,1.44.34,7.1,7.1,0,0,1,1,.38l.52.29L66.29,27a3.21,3.21,0,0,0-.62-.31c-.27-.11-.58-.23-.93-.34a8.36,8.36,0,0,0-1.12-.27A6.43,6.43,0,0,0,62.38,26a6,6,0,0,0-2.38.45,5.13,5.13,0,0,0-1.8,1.32,6.23,6.23,0,0,0-1.14,2.1,9.24,9.24,0,0,0-.39,2.78A9.62,9.62,0,0,0,57,35.32a6.08,6.08,0,0,0,1,2.1,4.65,4.65,0,0,0,1.74,1.35,5.81,5.81,0,0,0,2.44.48,9,9,0,0,0,2.66-.33,13.65,13.65,0,0,0,1.58-.6l.6,1.92a3.23,3.23,0,0,1-.6.3,8.63,8.63,0,0,1-1.08.35,13.77,13.77,0,0,1-1.51.28A13.57,13.57,0,0,1,62,41.29Z"/><path d="M80.21,24.3h2.33V40.93H80.21V33.25H72.08v7.68H69.75V24.3h2.33v6.94h8.13Z"/><path d="M92.86,41.29a7.38,7.38,0,0,1-2.83-.5,5.38,5.38,0,0,1-2-1.38,5.68,5.68,0,0,1-1.14-2.08,8.63,8.63,0,0,1-.37-2.59V24.3h2.33V34.48A5,5,0,0,0,90,38.1a3.87,3.87,0,0,0,2.88,1.13A4.45,4.45,0,0,0,94.48,39a3.1,3.1,0,0,0,1.26-.85,4,4,0,0,0,.82-1.48,7.08,7.08,0,0,0,.28-2.14V24.3h2.33V34.74a8.63,8.63,0,0,1-.37,2.59,5.3,5.3,0,0,1-3.12,3.46A7.29,7.29,0,0,1,92.86,41.29Z"/><path d="M111.32,34l1,1.26c.39.52.79,1.1,1.21,1.73s.83,1.29,1.24,2,.75,1.35,1,2h-2.54c-.33-.6-.67-1.22-1-1.85s-.75-1.21-1.14-1.78-.76-1.1-1.14-1.6-.71-.93-1-1.29l-.64,0h-2.74v6.5h-2.33V24.54a12.51,12.51,0,0,1,2.19-.32c.81-.06,1.55-.09,2.23-.09a9.11,9.11,0,0,1,5.34,1.32,4.55,4.55,0,0,1,1.83,3.94,4.62,4.62,0,0,1-.87,2.83A5.15,5.15,0,0,1,111.32,34Zm-3.53-7.8c-1,0-1.76,0-2.28.08v6.26h1.65a17.54,17.54,0,0,0,2.16-.12,4.77,4.77,0,0,0,1.62-.46,2.44,2.44,0,0,0,1-.94,3.19,3.19,0,0,0,.36-1.62,3.05,3.05,0,0,0-.36-1.56,2.63,2.63,0,0,0-1-1,4.16,4.16,0,0,0-1.44-.5A9.86,9.86,0,0,0,107.79,26.17Z"/><path d="M129.68,40.93c-.36-.59-.76-1.25-1.22-2s-.94-1.5-1.47-2.29-1.08-1.6-1.65-2.41-1.13-1.61-1.69-2.37-1.1-1.47-1.63-2.14-1-1.27-1.46-1.78v13h-2.28V24.3h1.84c.76.8,1.56,1.73,2.42,2.8s1.7,2.16,2.54,3.29,1.63,2.23,2.38,3.32,1.37,2.06,1.88,2.9V24.3h2.28V40.93Z"/><path d="M135.07,32.61a10.41,10.41,0,0,1,.64-3.77,7.88,7.88,0,0,1,1.73-2.73A7.35,7.35,0,0,1,140,24.47a8.59,8.59,0,0,1,3.09-.55,8.27,8.27,0,0,1,3,.55,7.14,7.14,0,0,1,2.51,1.64,8,8,0,0,1,1.72,2.73,10.42,10.42,0,0,1,.63,3.77,10.36,10.36,0,0,1-.63,3.76,8,8,0,0,1-1.72,2.73,7,7,0,0,1-2.51,1.64,8.27,8.27,0,0,1-3,.55,8.59,8.59,0,0,1-3.09-.55,7.21,7.21,0,0,1-2.54-1.64,7.88,7.88,0,0,1-1.73-2.73A10.35,10.35,0,0,1,135.07,32.61Zm2.45,0a9.07,9.07,0,0,0,.39,2.74,6,6,0,0,0,1.09,2.1,4.84,4.84,0,0,0,1.73,1.34,5.45,5.45,0,0,0,2.29.46,5.37,5.37,0,0,0,2.28-.46A5,5,0,0,0,147,37.45a6.14,6.14,0,0,0,1.09-2.1,10.1,10.1,0,0,0,0-5.49,6.14,6.14,0,0,0-1.09-2.1,4.84,4.84,0,0,0-1.72-1.33A5.22,5.22,0,0,0,143,26a5.3,5.3,0,0,0-2.29.47A4.7,4.7,0,0,0,139,27.76a6,6,0,0,0-1.09,2.1A9.09,9.09,0,0,0,137.52,32.61Z"/><path d="M158.91,41.08l-1.09,0c-.4,0-.79,0-1.18-.07s-.78-.07-1.16-.12a9.22,9.22,0,0,1-1.06-.19V24.54a9.22,9.22,0,0,1,1.06-.19c.38-.05.77-.09,1.16-.12s.78-.06,1.16-.07l1.08,0a16.4,16.4,0,0,1,2.7.22,6.88,6.88,0,0,1,2.19.73,4,4,0,0,1,1.45,1.36,3.82,3.82,0,0,1,.53,2.06,3.72,3.72,0,0,1-.65,2.25,3.85,3.85,0,0,1-1.73,1.3,5.08,5.08,0,0,1,2.33,1.37,3.73,3.73,0,0,1,.86,2.64,4.26,4.26,0,0,1-1.83,3.76Q162.89,41.08,158.91,41.08Zm-2.19-9.77h2.45a10.49,10.49,0,0,0,1.63-.12,4,4,0,0,0,1.34-.43,2.4,2.4,0,0,0,.88-.82,2.26,2.26,0,0,0,.33-1.27,2.05,2.05,0,0,0-.34-1.21,2.38,2.38,0,0,0-.92-.79,5.08,5.08,0,0,0-1.38-.45,10,10,0,0,0-1.68-.14l-1.39,0-.92.07Zm0,1.87V39l.63,0,.73,0h1a13.63,13.63,0,0,0,2-.13,5.49,5.49,0,0,0,1.62-.47,2.8,2.8,0,0,0,1.11-.93,2.6,2.6,0,0,0,.42-1.52,2.75,2.75,0,0,0-.31-1.37,2.29,2.29,0,0,0-.9-.9,4.06,4.06,0,0,0-1.4-.48,10.19,10.19,0,0,0-1.83-.15Z"/><path d="M173.21,40.93V34.26q-1.65-2.57-3.12-5.06c-1-1.67-1.89-3.3-2.76-4.9h2.74c.61,1.31,1.29,2.65,2,4s1.52,2.65,2.33,3.9q1.17-1.88,2.3-3.9c.75-1.35,1.44-2.69,2.06-4h2.6q-1.31,2.4-2.76,4.89c-1,1.65-2,3.33-3.1,5v6.72Z"/><path d="M193.61,38.92v2h-10V24.3h2.33V38.92Z"/><path d="M202.07,25.33V23.74h12.56v1.59h-5.34v16h-1.88v-16Z"/><path d="M214.91,34.9a7.1,7.1,0,0,1,1.6-4.8,5.22,5.22,0,0,1,4.12-1.84,5,5,0,0,1,4.06,1.8,7,7,0,0,1,1.47,4.58c0,.22,0,.53,0,.94h-9.38a5.1,5.1,0,0,0,1.06,3.25,3.49,3.49,0,0,0,2.93,1.36,4,4,0,0,0,3.61-2.11l1.54.47A5.2,5.2,0,0,1,224,40.83a5.73,5.73,0,0,1-3.26.89,5.27,5.27,0,0,1-4.22-1.88A7.39,7.39,0,0,1,214.91,34.9Zm1.88-.71h7.55a4.94,4.94,0,0,0-1-3.13,3.26,3.26,0,0,0-2.7-1.27,3.32,3.32,0,0,0-2.75,1.31A5,5,0,0,0,216.79,34.19Z"/><path d="M228.18,35a7.46,7.46,0,0,1,1.52-4.86,5,5,0,0,1,4.11-1.87,4.45,4.45,0,0,1,2.89,1,4.65,4.65,0,0,1,1.61,2.3l-1.55.45a3.57,3.57,0,0,0-1.14-1.57,2.81,2.81,0,0,0-1.81-.63A3.22,3.22,0,0,0,231,31.26,6.36,6.36,0,0,0,230,35a6.1,6.1,0,0,0,1.08,3.8,3.3,3.3,0,0,0,2.72,1.4,3.18,3.18,0,0,0,2-.71,4.07,4.07,0,0,0,1.28-1.65l1.54.49a5.07,5.07,0,0,1-1.79,2.4,4.88,4.88,0,0,1-3,1,5.08,5.08,0,0,1-4.07-1.83A7.29,7.29,0,0,1,228.18,35Z"/><path d="M241.21,41.29V23.08H243v7.64h0A4.35,4.35,0,0,1,244.55,29a4,4,0,0,1,2.38-.73q4.08,0,4.08,4.88v8.15h-1.78V33.44c0-2.44-.88-3.65-2.63-3.65A3.29,3.29,0,0,0,244.07,31,4.09,4.09,0,0,0,243,33.82v7.47Z"/><path d="M261.06,41.29V23.74h6.47A5.54,5.54,0,0,1,271.41,25a4.24,4.24,0,0,1,1.33,3.28,3.89,3.89,0,0,1-.72,2.38,4.48,4.48,0,0,1-1.82,1.46,4.56,4.56,0,0,1,2.27,1.55,4.32,4.32,0,0,1,.92,2.77,4.93,4.93,0,0,1-1.32,3.45,4.78,4.78,0,0,1-3.69,1.44Zm1.88-9.82h4.26a4.13,4.13,0,0,0,2.59-.77,2.73,2.73,0,0,0,1-2.32,3,3,0,0,0-.83-2.2,3.61,3.61,0,0,0-2.68-.85h-4.36Zm0,8.23h5a3.74,3.74,0,0,0,2.54-.88,3,3,0,0,0,1-2.4,3.22,3.22,0,0,0-1-2.42,3.66,3.66,0,0,0-2.66-1h-4.87Z"/><path d="M276.72,41.29V23.08h1.78V41.29Z"/><path d="M281.69,35a7.6,7.6,0,0,1,1.49-4.81,5.5,5.5,0,0,1,8.35,0A7.61,7.61,0,0,1,293,35a9,9,0,0,1-.31,2.37,8,8,0,0,1-1,2.14A4.71,4.71,0,0,1,290,41.11a5.89,5.89,0,0,1-5.2,0,4.61,4.61,0,0,1-1.78-1.6,7.82,7.82,0,0,1-1-2.14A8.62,8.62,0,0,1,281.69,35Zm1.83,0a6,6,0,0,0,1.1,3.8,3.37,3.37,0,0,0,5.47,0A6,6,0,0,0,291.2,35a5.87,5.87,0,0,0-1.12-3.82,3.38,3.38,0,0,0-5.45,0A5.93,5.93,0,0,0,283.52,35Z"/><path d="M295.09,34.78a7.25,7.25,0,0,1,1.46-4.72,4.6,4.6,0,0,1,3.75-1.8,3.66,3.66,0,0,1,2.38.75A4.3,4.3,0,0,1,304,30.75V28.68h1.78V39.82a9,9,0,0,1-1.28,5.33,4.7,4.7,0,0,1-4.06,1.75,5.46,5.46,0,0,1-4.69-2.3l1.27-.82a4.49,4.49,0,0,0,3.47,1.64,3,3,0,0,0,2.58-1.3,5.88,5.88,0,0,0,.93-3.48V38.83a4.46,4.46,0,0,1-1.42,1.74,3.68,3.68,0,0,1-2.24.68,4.63,4.63,0,0,1-3.82-1.82A7.31,7.31,0,0,1,295.09,34.78Zm1.83,0a6,6,0,0,0,1,3.6,3.13,3.13,0,0,0,5.14.06,6.2,6.2,0,0,0,.95-3.68,6,6,0,0,0-1-3.62,3,3,0,0,0-2.5-1.32,3,3,0,0,0-2.62,1.39A6,6,0,0,0,296.92,34.75Z"/></svg>